<svg class="rich-terminal" viewBox="0 0 1580 879.5999999999999" xmlns="http://www.w3.org/2000/svg">
    <!-- Generated with Rich https://www.textualize.io -->
    <style>

    @font-face {
        font-family: "Fira Code";
        src: local("FiraCode-Regular"),
                url("https://cdnjs.cloudflare.com/ajax/libs/firacode/6.2.0/woff2/FiraCode-Regular.woff2") format("woff2"),
                url("https://cdnjs.cloudflare.com/ajax/libs/firacode/6.2.0/woff/FiraCode-Regular.woff") format("woff");
        font-style: normal;
        font-weight: 400;
    }
    @font-face {
        font-family: "Fira Code";
        src: local("FiraCode-Bold"),
                url("https://cdnjs.cloudflare.com/ajax/libs/firacode/6.2.0/woff2/FiraCode-Bold.woff2") format("woff2"),
                url("https://cdnjs.cloudflare.com/ajax/libs/firacode/6.2.0/woff/FiraCode-Bold.woff") format("woff");
        font-style: bold;
        font-weight: 700;
    }

    .terminal-805846022-matrix {
        font-family: Fira Code, monospace;
        font-size: 20px;
        line-height: 24.4px;
        font-variant-east-asian: full-width;
    }

    .terminal-805846022-title {
        font-size: 18px;
        font-weight: bold;
        font-family: arial;
    }

    .terminal-805846022-r1 { fill: #c5c8c6 }
.terminal-805846022-r2 { fill: #e0e0e0 }
.terminal-805846022-r3 { fill: #a0a3a6 }
.terminal-805846022-r4 { fill: #c5c6c7 }
.terminal-805846022-r5 { fill: #e0e0e0;font-weight: bold }
.terminal-805846022-r6 { fill: #ddedf9;font-weight: bold }
.terminal-805846022-r7 { fill: #fd971f }
.terminal-805846022-r8 { fill: #58d1eb }
.terminal-805846022-r9 { fill: #98e024 }
.terminal-805846022-r10 { fill: #0178d4 }
.terminal-805846022-r11 { fill: #0178d4;font-weight: bold }
.terminal-805846022-r12 { fill: #f4bb6e }
.terminal-805846022-r13 { fill: #57a5e2 }
.terminal-805846022-r14 { fill: #ffffff }
.terminal-805846022-r15 { fill: #ffffff;font-weight: bold }
.terminal-805846022-r16 { fill: #7dc092 }
.terminal-805846022-r17 { fill: #ffa62b;font-weight: bold }
    </style>

    <defs>
    <clipPath id="terminal-805846022-clip-terminal">
      <rect x="0" y="0" width="1560.6" height="828.5999999999999" />
    </clipPath>
    <clipPath id="terminal-805846022-line-0">
    <rect x="0" y="1.5" width="1561.6" height="24.65"/>
            </clipPath>
<clipPath id="terminal-805846022-line-1">
    <rect x="0" y="25.9" width="1561.6" height="24.65"/>
            </clipPath>
<clipPath id="terminal-805846022-line-2">
    <rect x="0" y="50.3" width="1561.6" height="24.65"/>
            </clipPath>
<clipPath id="terminal-805846022-line-3">
    <rect x="0" y="74.7" width="1561.6" height="24.65"/>
            </clipPath>
<clipPath id="terminal-805846022-line-4">
    <rect x="0" y="99.1" width="1561.6" height="24.65"/>
            </clipPath>
<clipPath id="terminal-805846022-line-5">
    <rect x="0" y="123.5" width="1561.6" height="24.65"/>
            </clipPath>
<clipPath id="terminal-805846022-line-6">
    <rect x="0" y="147.9" width="1561.6" height="24.65"/>
            </clipPath>
<clipPath id="terminal-805846022-line-7">
    <rect x="0" y="172.3" width="1561.6" height="24.65"/>
            </clipPath>
<clipPath id="terminal-805846022-line-8">
    <rect x="0" y="196.7" width="1561.6" height="24.65"/>
            </clipPath>
<clipPath id="terminal-805846022-line-9">
    <rect x="0" y="221.1" width="1561.6" height="24.65"/>
            </clipPath>
<clipPath id="terminal-805846022-line-10">
    <rect x="0" y="245.5" width="1561.6" height="24.65"/>
            </clipPath>
<clipPath id="terminal-805846022-line-11">
    <rect x="0" y="269.9" width="1561.6" height="24.65"/>
            </clipPath>
<clipPath id="terminal-805846022-line-12">
    <rect x="0" y="294.3" width="1561.6" height="24.65"/>
            </clipPath>
<clipPath id="terminal-805846022-line-13">
    <rect x="0" y="318.7" width="1561.6" height="24.65"/>
            </clipPath>
<clipPath id="terminal-805846022-line-14">
    <rect x="0" y="343.1" width="1561.6" height="24.65"/>
            </clipPath>
<clipPath id="terminal-805846022-line-15">
    <rect x="0" y="367.5" width="1561.6" height="24.65"/>
            </clipPath>
<clipPath id="terminal-805846022-line-16">
    <rect x="0" y="391.9" width="1561.6" height="24.65"/>
            </clipPath>
<clipPath id="terminal-805846022-line-17">
    <rect x="0" y="416.3" width="1561.6" height="24.65"/>
            </clipPath>
<clipPath id="terminal-805846022-line-18">
    <rect x="0" y="440.7" width="1561.6" height="24.65"/>
            </clipPath>
<clipPath id="terminal-805846022-line-19">
    <rect x="0" y="465.1" width="1561.6" height="24.65"/>
            </clipPath>
<clipPath id="terminal-805846022-line-20">
    <rect x="0" y="489.5" width="1561.6" height="24.65"/>
            </clipPath>
<clipPath id="terminal-805846022-line-21">
    <rect x="0" y="513.9" width="1561.6" height="24.65"/>
            </clipPath>
<clipPath id="terminal-805846022-line-22">
    <rect x="0" y="538.3" width="1561.6" height="24.65"/>
            </clipPath>
<clipPath id="terminal-805846022-line-23">
    <rect x="0" y="562.7" width="1561.6" height="24.65"/>
            </clipPath>
<clipPath id="terminal-805846022-line-24">
    <rect x="0" y="587.1" width="1561.6" height="24.65"/>
            </clipPath>
<clipPath id="terminal-805846022-line-25">
    <rect x="0" y="611.5" width="1561.6" height="24.65"/>
            </clipPath>
<clipPath id="terminal-805846022-line-26">
    <rect x="0" y="635.9" width="1561.6" height="24.65"/>
            </clipPath>
<clipPath id="terminal-805846022-line-27">
    <rect x="0" y="660.3" width="1561.6" height="24.65"/>
            </clipPath>
<clipPath id="terminal-805846022-line-28">
    <rect x="0" y="684.7" width="1561.6" height="24.65"/>
            </clipPath>
<clipPath id="terminal-805846022-line-29">
    <rect x="0" y="709.1" width="1561.6" height="24.65"/>
            </clipPath>
<clipPath id="terminal-805846022-line-30">
    <rect x="0" y="733.5" width="1561.6" height="24.65"/>
            </clipPath>
<clipPath id="terminal-805846022-line-31">
    <rect x="0" y="757.9" width="1561.6" height="24.65"/>
            </clipPath>
<clipPath id="terminal-805846022-line-32">
    <rect x="0" y="782.3" width="1561.6" height="24.65"/>
            </clipPath>
    </defs>

    <rect fill="#292929" stroke="rgba(255,255,255,0.35)" stroke-width="1" x="1" y="1" width="1578" height="877.6" rx="8"/><text class="terminal-805846022-title" fill="#c5c8c6" text-anchor="middle" x="789" y="27">vivibox</text>
            <g transform="translate(26,22)">
            <circle cx="0" cy="0" r="7" fill="#ff5f57"/>
            <circle cx="22" cy="0" r="7" fill="#febc2e"/>
            <circle cx="44" cy="0" r="7" fill="#28c840"/>
            </g>
        
    <g transform="translate(9, 41)" clip-path="url(#terminal-805846022-clip-terminal)">
    <rect fill="#242f38" x="0" y="1.5" width="12.2" height="24.65" shape-rendering="crispEdges"/><rect fill="#242f38" x="12.2" y="1.5" width="12.2" height="24.65" shape-rendering="crispEdges"/><rect fill="#242f38" x="24.4" y="1.5" width="61" height="24.65" shape-rendering="crispEdges"/><rect fill="#242f38" x="85.4" y="1.5" width="12.2" height="24.65" shape-rendering="crispEdges"/><rect fill="#242f38" x="97.6" y="1.5" width="427" height="24.65" shape-rendering="crispEdges"/><rect fill="#242f38" x="524.6" y="1.5" width="85.4" height="24.65" shape-rendering="crispEdges"/><rect fill="#242f38" x="610" y="1.5" width="36.6" height="24.65" shape-rendering="crispEdges"/><rect fill="#242f38" x="646.6" y="1.5" width="353.8" height="24.65" shape-rendering="crispEdges"/><rect fill="#242f38" x="1000.4" y="1.5" width="439.2" height="24.65" shape-rendering="crispEdges"/><rect fill="#2c363f" x="1439.6" y="1.5" width="12.2" height="24.65" shape-rendering="crispEdges"/><rect fill="#2c363f" x="1451.8" y="1.5" width="97.6" height="24.65" shape-rendering="crispEdges"/><rect fill="#2c363f" x="1549.4" y="1.5" width="12.2" height="24.65" shape-rendering="crispEdges"/><rect fill="#2d3740" x="0" y="25.9" width="158.6" height="24.65" shape-rendering="crispEdges"/><rect fill="#2d3740" x="158.6" y="25.9" width="366" height="24.65" shape-rendering="crispEdges"/><rect fill="#2d3740" x="524.6" y="25.9" width="122" height="24.65" shape-rendering="crispEdges"/><rect fill="#2d3740" x="646.6" y="25.9" width="134.2" height="24.65" shape-rendering="crispEdges"/><rect fill="#2d3740" x="780.8" y="25.9" width="585.6" height="24.65" shape-rendering="crispEdges"/><rect fill="#2d3740" x="1366.4" y="25.9" width="195.2" height="24.65" shape-rendering="crispEdges"/><rect fill="#0178d4" x="0" y="50.3" width="158.6" height="24.65" shape-rendering="crispEdges"/><rect fill="#0178d4" x="158.6" y="50.3" width="366" height="24.65" shape-rendering="crispEdges"/><rect fill="#0178d4" x="524.6" y="50.3" width="122" height="24.65" shape-rendering="crispEdges"/><rect fill="#0178d4" x="646.6" y="50.3" width="134.2" height="24.65" shape-rendering="crispEdges"/><rect fill="#0178d4" x="780.8" y="50.3" width="585.6" height="24.65" shape-rendering="crispEdges"/><rect fill="#0178d4" x="1366.4" y="50.3" width="195.2" height="24.65" shape-rendering="crispEdges"/><rect fill="#272727" x="0" y="74.7" width="158.6" height="24.65" shape-rendering="crispEdges"/><rect fill="#272727" x="158.6" y="74.7" width="12.2" height="24.65" shape-rendering="crispEdges"/><rect fill="#272727" x="170.8" y="74.7" width="146.4" height="24.65" shape-rendering="crispEdges"/><rect fill="#272727" x="317.2" y="74.7" width="207.4" height="24.65" shape-rendering="crispEdges"/><rect fill="#272727" x="524.6" y="74.7" width="122" height="24.65" shape-rendering="crispEdges"/><rect fill="#272727" x="646.6" y="74.7" width="134.2" height="24.65" shape-rendering="crispEdges"/><rect fill="#272727" x="780.8" y="74.7" width="585.6" height="24.65" shape-rendering="crispEdges"/><rect fill="#272727" x="1366.4" y="74.7" width="195.2" height="24.65" shape-rendering="crispEdges"/><rect fill="#1c1c1c" x="0" y="99.1" width="158.6" height="24.65" shape-rendering="crispEdges"/><rect fill="#1c1c1c" x="158.6" y="99.1" width="12.2" height="24.65" shape-rendering="crispEdges"/><rect fill="#1c1c1c" x="170.8" y="99.1" width="134.2" height="24.65" shape-rendering="crispEdges"/><rect fill="#1c1c1c" x="305" y="99.1" width="219.6" height="24.65" shape-rendering="crispEdges"/><rect fill="#1c1c1c" x="524.6" y="99.1" width="122" height="24.65" shape-rendering="crispEdges"/><rect fill="#1c1c1c" x="646.6" y="99.1" width="134.2" height="24.65" shape-rendering="crispEdges"/><rect fill="#1c1c1c" x="780.8" y="99.1" width="585.6" height="24.65" shape-rendering="crispEdges"/><rect fill="#1c1c1c" x="1366.4" y="99.1" width="195.2" height="24.65" shape-rendering="crispEdges"/><rect fill="#272727" x="0" y="123.5" width="158.6" height="24.65" shape-rendering="crispEdges"/><rect fill="#272727" x="158.6" y="123.5" width="12.2" height="24.65" shape-rendering="crispEdges"/><rect fill="#272727" x="170.8" y="123.5" width="122" height="24.65" shape-rendering="crispEdges"/><rect fill="#272727" x="292.8" y="123.5" width="231.8" height="24.65" shape-rendering="crispEdges"/><rect fill="#272727" x="524.6" y="123.5" width="122" height="24.65" shape-rendering="crispEdges"/><rect fill="#272727" x="646.6" y="123.5" width="134.2" height="24.65" shape-rendering="crispEdges"/><rect fill="#272727" x="780.8" y="123.5" width="585.6" height="24.65" shape-rendering="crispEdges"/><rect fill="#272727" x="1366.4" y="123.5" width="195.2" height="24.65" shape-rendering="crispEdges"/><rect fill="#1c1c1c" x="0" y="147.9" width="158.6" height="24.65" shape-rendering="crispEdges"/><rect fill="#1c1c1c" x="158.6" y="147.9" width="12.2" height="24.65" shape-rendering="crispEdges"/><rect fill="#1c1c1c" x="170.8" y="147.9" width="73.2" height="24.65" shape-rendering="crispEdges"/><rect fill="#1c1c1c" x="244" y="147.9" width="280.6" height="24.65" shape-rendering="crispEdges"/><rect fill="#1c1c1c" x="524.6" y="147.9" width="122" height="24.65" shape-rendering="crispEdges"/><rect fill="#1c1c1c" x="646.6" y="147.9" width="134.2" height="24.65" shape-rendering="crispEdges"/><rect fill="#1c1c1c" x="780.8" y="147.9" width="585.6" height="24.65" shape-rendering="crispEdges"/><rect fill="#1c1c1c" x="1366.4" y="147.9" width="195.2" height="24.65" shape-rendering="crispEdges"/><rect fill="#272727" x="0" y="172.3" width="12.2" height="24.65" shape-rendering="crispEdges"/><rect fill="#272727" x="12.2" y="172.3" width="73.2" height="24.65" shape-rendering="crispEdges"/><rect fill="#272727" x="85.4" y="172.3" width="73.2" height="24.65" shape-rendering="crispEdges"/><rect fill="#272727" x="158.6" y="172.3" width="366" height="24.65" shape-rendering="crispEdges"/><rect fill="#272727" x="524.6" y="172.3" width="122" height="24.65" shape-rendering="crispEdges"/><rect fill="#272727" x="646.6" y="172.3" width="134.2" height="24.65" shape-rendering="crispEdges"/><rect fill="#272727" x="780.8" y="172.3" width="12.2" height="24.65" shape-rendering="crispEdges"/><rect fill="#272727" x="793" y="172.3" width="207.4" height="24.65" shape-rendering="crispEdges"/><rect fill="#272727" x="1000.4" y="172.3" width="36.6" height="24.65" shape-rendering="crispEdges"/><rect fill="#272727" x="1037" y="172.3" width="109.8" height="24.65" shape-rendering="crispEdges"/><rect fill="#272727" x="1146.8" y="172.3" width="219.6" height="24.65" shape-rendering="crispEdges"/><rect fill="#272727" x="1366.4" y="172.3" width="195.2" height="24.65" shape-rendering="crispEdges"/><rect fill="#1c1c1c" x="0" y="196.7" width="158.6" height="24.65" shape-rendering="crispEdges"/><rect fill="#1c1c1c" x="158.6" y="196.7" width="12.2" height="24.65" shape-rendering="crispEdges"/><rect fill="#1c1c1c" x="170.8" y="196.7" width="207.4" height="24.65" shape-rendering="crispEdges"/><rect fill="#1c1c1c" x="378.2" y="196.7" width="146.4" height="24.65" shape-rendering="crispEdges"/><rect fill="#1c1c1c" x="524.6" y="196.7" width="122" height="24.65" shape-rendering="crispEdges"/><rect fill="#1c1c1c" x="646.6" y="196.7" width="134.2" height="24.65" shape-rendering="crispEdges"/><rect fill="#1c1c1c" x="780.8" y="196.7" width="585.6" height="24.65" shape-rendering="crispEdges"/><rect fill="#1c1c1c" x="1366.4" y="196.7" width="195.2" height="24.65" shape-rendering="crispEdges"/><rect fill="#272727" x="0" y="221.1" width="158.6" height="24.65" shape-rendering="crispEdges"/><rect fill="#272727" x="158.6" y="221.1" width="12.2" height="24.65" shape-rendering="crispEdges"/><rect fill="#272727" x="170.8" y="221.1" width="207.4" height="24.65" shape-rendering="crispEdges"/><rect fill="#272727" x="378.2" y="221.1" width="146.4" height="24.65" shape-rendering="crispEdges"/><rect fill="#272727" x="524.6" y="221.1" width="122" height="24.65" shape-rendering="crispEdges"/><rect fill="#272727" x="646.6" y="221.1" width="134.2" height="24.65" shape-rendering="crispEdges"/><rect fill="#272727" x="780.8" y="221.1" width="585.6" height="24.65" shape-rendering="crispEdges"/><rect fill="#272727" x="1366.4" y="221.1" width="195.2" height="24.65" shape-rendering="crispEdges"/><rect fill="#1c1c1c" x="0" y="245.5" width="158.6" height="24.65" shape-rendering="crispEdges"/><rect fill="#1c1c1c" x="158.6" y="245.5" width="12.2" height="24.65" shape-rendering="crispEdges"/><rect fill="#1c1c1c" x="170.8" y="245.5" width="341.6" height="24.65" shape-rendering="crispEdges"/><rect fill="#1c1c1c" x="512.4" y="245.5" width="12.2" height="24.65" shape-rendering="crispEdges"/><rect fill="#1c1c1c" x="524.6" y="245.5" width="122" height="24.65" shape-rendering="crispEdges"/><rect fill="#1c1c1c" x="646.6" y="245.5" width="134.2" height="24.65" shape-rendering="crispEdges"/><rect fill="#1c1c1c" x="780.8" y="245.5" width="585.6" height="24.65" shape-rendering="crispEdges"/><rect fill="#1c1c1c" x="1366.4" y="245.5" width="195.2" height="24.65" shape-rendering="crispEdges"/><rect fill="#272727" x="0" y="269.9" width="1561.6" height="24.65" shape-rendering="crispEdges"/><rect fill="#272727" x="0" y="294.3" width="1561.6" height="24.65" shape-rendering="crispEdges"/><rect fill="#272727" x="0" y="318.7" width="1561.6" height="24.65" shape-rendering="crispEdges"/><rect fill="#121212" x="0" y="343.1" width="1561.6" height="24.65" shape-rendering="crispEdges"/><rect fill="#121212" x="0" y="367.5" width="12.2" height="24.65" shape-rendering="crispEdges"/><rect fill="#121212" x="12.2" y="367.5" width="24.4" height="24.65" shape-rendering="crispEdges"/><rect fill="#121212" x="36.6" y="367.5" width="1488.4" height="24.65" shape-rendering="crispEdges"/><rect fill="#121212" x="1525" y="367.5" width="24.4" height="24.65" shape-rendering="crispEdges"/><rect fill="#121212" x="1549.4" y="367.5" width="12.2" height="24.65" shape-rendering="crispEdges"/><rect fill="#121212" x="0" y="391.9" width="12.2" height="24.65" shape-rendering="crispEdges"/><rect fill="#121212" x="12.2" y="391.9" width="24.4" height="24.65" shape-rendering="crispEdges"/><rect fill="#121212" x="36.6" y="391.9" width="85.4" height="24.65" shape-rendering="crispEdges"/><rect fill="#121212" x="122" y="391.9" width="1403" height="24.65" shape-rendering="crispEdges"/><rect fill="#121212" x="1525" y="391.9" width="24.4" height="24.65" shape-rendering="crispEdges"/><rect fill="#121212" x="1549.4" y="391.9" width="12.2" height="24.65" shape-rendering="crispEdges"/><rect fill="#121212" x="0" y="416.3" width="12.2" height="24.65" shape-rendering="crispEdges"/><rect fill="#121212" x="12.2" y="416.3" width="24.4" height="24.65" shape-rendering="crispEdges"/><rect fill="#121212" x="36.6" y="416.3" width="1488.4" height="24.65" shape-rendering="crispEdges"/><rect fill="#121212" x="1525" y="416.3" width="24.4" height="24.65" shape-rendering="crispEdges"/><rect fill="#121212" x="1549.4" y="416.3" width="12.2" height="24.65" shape-rendering="crispEdges"/><rect fill="#121212" x="0" y="440.7" width="12.2" height="24.65" shape-rendering="crispEdges"/><rect fill="#121212" x="12.2" y="440.7" width="24.4" height="24.65" shape-rendering="crispEdges"/><rect fill="#121212" x="36.6" y="440.7" width="61" height="24.65" shape-rendering="crispEdges"/><rect fill="#121212" x="97.6" y="440.7" width="12.2" height="24.65" shape-rendering="crispEdges"/><rect fill="#241d13" x="109.8" y="440.7" width="12.2" height="24.65" shape-rendering="crispEdges"/><rect fill="#121212" x="122" y="440.7" width="146.4" height="24.65" shape-rendering="crispEdges"/><rect fill="#241d13" x="268.4" y="440.7" width="12.2" height="24.65" shape-rendering="crispEdges"/><rect fill="#121212" x="280.6" y="440.7" width="329.4" height="24.65" shape-rendering="crispEdges"/><rect fill="#241d13" x="610" y="440.7" width="12.2" height="24.65" shape-rendering="crispEdges"/><rect fill="#121212" x="622.2" y="440.7" width="390.4" height="24.65" shape-rendering="crispEdges"/><rect fill="#121212" x="1012.6" y="440.7" width="512.4" height="24.65" shape-rendering="crispEdges"/><rect fill="#121212" x="1525" y="440.7" width="24.4" height="24.65" shape-rendering="crispEdges"/><rect fill="#121212" x="1549.4" y="440.7" width="12.2" height="24.65" shape-rendering="crispEdges"/><rect fill="#121212" x="0" y="465.1" width="12.2" height="24.65" shape-rendering="crispEdges"/><rect fill="#121212" x="12.2" y="465.1" width="24.4" height="24.65" shape-rendering="crispEdges"/><rect fill="#121212" x="36.6" y="465.1" width="1488.4" height="24.65" shape-rendering="crispEdges"/><rect fill="#121212" x="1525" y="465.1" width="24.4" height="24.65" shape-rendering="crispEdges"/><rect fill="#121212" x="1549.4" y="465.1" width="12.2" height="24.65" shape-rendering="crispEdges"/><rect fill="#121212" x="0" y="489.5" width="12.2" height="24.65" shape-rendering="crispEdges"/><rect fill="#121212" x="12.2" y="489.5" width="24.4" height="24.65" shape-rendering="crispEdges"/><rect fill="#241d13" x="36.6" y="489.5" width="695.4" height="24.65" shape-rendering="crispEdges"/><rect fill="#121212" x="732" y="489.5" width="793" height="24.65" shape-rendering="crispEdges"/><rect fill="#121212" x="1525" y="489.5" width="24.4" height="24.65" shape-rendering="crispEdges"/><rect fill="#121212" x="1549.4" y="489.5" width="12.2" height="24.65" shape-rendering="crispEdges"/><rect fill="#121212" x="0" y="513.9" width="12.2" height="24.65" shape-rendering="crispEdges"/><rect fill="#121212" x="12.2" y="513.9" width="24.4" height="24.65" shape-rendering="crispEdges"/><rect fill="#121212" x="36.6" y="513.9" width="1488.4" height="24.65" shape-rendering="crispEdges"/><rect fill="#121212" x="1525" y="513.9" width="24.4" height="24.65" shape-rendering="crispEdges"/><rect fill="#121212" x="1549.4" y="513.9" width="12.2" height="24.65" shape-rendering="crispEdges"/><rect fill="#121212" x="0" y="538.3" width="12.2" height="24.65" shape-rendering="crispEdges"/><rect fill="#121212" x="12.2" y="538.3" width="24.4" height="24.65" shape-rendering="crispEdges"/><rect fill="#101010" x="36.6" y="538.3" width="1488.4" height="24.65" shape-rendering="crispEdges"/><rect fill="#121212" x="1525" y="538.3" width="24.4" height="24.65" shape-rendering="crispEdges"/><rect fill="#121212" x="1549.4" y="538.3" width="12.2" height="24.65" shape-rendering="crispEdges"/><rect fill="#121212" x="0" y="562.7" width="12.2" height="24.65" shape-rendering="crispEdges"/><rect fill="#121212" x="12.2" y="562.7" width="24.4" height="24.65" shape-rendering="crispEdges"/><rect fill="#101010" x="36.6" y="562.7" width="24.4" height="24.65" shape-rendering="crispEdges"/><rect fill="#101010" x="61" y="562.7" width="48.8" height="24.65" shape-rendering="crispEdges"/><rect fill="#101010" x="109.8" y="562.7" width="12.2" height="24.65" shape-rendering="crispEdges"/><rect fill="#101010" x="122" y="562.7" width="12.2" height="24.65" shape-rendering="crispEdges"/><rect fill="#101010" x="134.2" y="562.7" width="12.2" height="24.65" shape-rendering="crispEdges"/><rect fill="#101010" x="146.4" y="562.7" width="12.2" height="24.65" shape-rendering="crispEdges"/><rect fill="#101010" x="158.6" y="562.7" width="439.2" height="24.65" shape-rendering="crispEdges"/><rect fill="#101010" x="597.8" y="562.7" width="12.2" height="24.65" shape-rendering="crispEdges"/><rect fill="#101010" x="610" y="562.7" width="890.6" height="24.65" shape-rendering="crispEdges"/><rect fill="#101010" x="1500.6" y="562.7" width="24.4" height="24.65" shape-rendering="crispEdges"/><rect fill="#121212" x="1525" y="562.7" width="24.4" height="24.65" shape-rendering="crispEdges"/><rect fill="#121212" x="1549.4" y="562.7" width="12.2" height="24.65" shape-rendering="crispEdges"/><rect fill="#121212" x="0" y="587.1" width="12.2" height="24.65" shape-rendering="crispEdges"/><rect fill="#121212" x="12.2" y="587.1" width="24.4" height="24.65" shape-rendering="crispEdges"/><rect fill="#101010" x="36.6" y="587.1" width="24.4" height="24.65" shape-rendering="crispEdges"/><rect fill="#101010" x="61" y="587.1" width="73.2" height="24.65" shape-rendering="crispEdges"/><rect fill="#101010" x="134.2" y="587.1" width="12.2" height="24.65" shape-rendering="crispEdges"/><rect fill="#101010" x="146.4" y="587.1" width="12.2" height="24.65" shape-rendering="crispEdges"/><rect fill="#101010" x="158.6" y="587.1" width="24.4" height="24.65" shape-rendering="crispEdges"/><rect fill="#101010" x="183" y="587.1" width="12.2" height="24.65" shape-rendering="crispEdges"/><rect fill="#101010" x="195.2" y="587.1" width="48.8" height="24.65" shape-rendering="crispEdges"/><rect fill="#101010" x="244" y="587.1" width="12.2" height="24.65" shape-rendering="crispEdges"/><rect fill="#101010" x="256.2" y="587.1" width="12.2" height="24.65" shape-rendering="crispEdges"/><rect fill="#101010" x="268.4" y="587.1" width="1232.2" height="24.65" shape-rendering="crispEdges"/><rect fill="#101010" x="1500.6" y="587.1" width="24.4" height="24.65" shape-rendering="crispEdges"/><rect fill="#121212" x="1525" y="587.1" width="24.4" height="24.65" shape-rendering="crispEdges"/><rect fill="#121212" x="1549.4" y="587.1" width="12.2" height="24.65" shape-rendering="crispEdges"/><rect fill="#121212" x="0" y="611.5" width="12.2" height="24.65" shape-rendering="crispEdges"/><rect fill="#121212" x="12.2" y="611.5" width="24.4" height="24.65" shape-rendering="crispEdges"/><rect fill="#101010" x="36.6" y="611.5" width="1488.4" height="24.65" shape-rendering="crispEdges"/><rect fill="#121212" x="1525" y="611.5" width="24.4" height="24.65" shape-rendering="crispEdges"/><rect fill="#121212" x="1549.4" y="611.5" width="12.2" height="24.65" shape-rendering="crispEdges"/><rect fill="#121212" x="0" y="635.9" width="12.2" height="24.65" shape-rendering="crispEdges"/><rect fill="#121212" x="12.2" y="635.9" width="24.4" height="24.65" shape-rendering="crispEdges"/><rect fill="#121212" x="36.6" y="635.9" width="1488.4" height="24.65" shape-rendering="crispEdges"/><rect fill="#121212" x="1525" y="635.9" width="24.4" height="24.65" shape-rendering="crispEdges"/><rect fill="#121212" x="1549.4" y="635.9" width="12.2" height="24.65" shape-rendering="crispEdges"/><rect fill="#121212" x="0" y="660.3" width="12.2" height="24.65" shape-rendering="crispEdges"/><rect fill="#121212" x="12.2" y="660.3" width="1537.2" height="24.65" shape-rendering="crispEdges"/><rect fill="#121212" x="1549.4" y="660.3" width="12.2" height="24.65" shape-rendering="crispEdges"/><rect fill="#121212" x="0" y="684.7" width="12.2" height="24.65" shape-rendering="crispEdges"/><rect fill="#121212" x="12.2" y="684.7" width="1537.2" height="24.65" shape-rendering="crispEdges"/><rect fill="#121212" x="1549.4" y="684.7" width="12.2" height="24.65" shape-rendering="crispEdges"/><rect fill="#121212" x="0" y="709.1" width="12.2" height="24.65" shape-rendering="crispEdges"/><rect fill="#121212" x="12.2" y="709.1" width="1537.2" height="24.65" shape-rendering="crispEdges"/><rect fill="#121212" x="1549.4" y="709.1" width="12.2" height="24.65" shape-rendering="crispEdges"/><rect fill="#121212" x="0" y="733.5" width="12.2" height="24.65" shape-rendering="crispEdges"/><rect fill="#121212" x="12.2" y="733.5" width="1537.2" height="24.65" shape-rendering="crispEdges"/><rect fill="#121212" x="1549.4" y="733.5" width="12.2" height="24.65" shape-rendering="crispEdges"/><rect fill="#121212" x="0" y="757.9" width="12.2" height="24.65" shape-rendering="crispEdges"/><rect fill="#121212" x="12.2" y="757.9" width="1537.2" height="24.65" shape-rendering="crispEdges"/><rect fill="#121212" x="1549.4" y="757.9" width="12.2" height="24.65" shape-rendering="crispEdges"/><rect fill="#121212" x="0" y="782.3" width="12.2" height="24.65" shape-rendering="crispEdges"/><rect fill="#121212" x="12.2" y="782.3" width="1537.2" height="24.65" shape-rendering="crispEdges"/><rect fill="#121212" x="1549.4" y="782.3" width="12.2" height="24.65" shape-rendering="crispEdges"/><rect fill="#242f38" x="0" y="806.7" width="12.2" height="24.65" shape-rendering="crispEdges"/><rect fill="#242f38" x="12.2" y="806.7" width="97.6" height="24.65" shape-rendering="crispEdges"/><rect fill="#242f38" x="109.8" y="806.7" width="12.2" height="24.65" shape-rendering="crispEdges"/><rect fill="#242f38" x="122" y="806.7" width="12.2" height="24.65" shape-rendering="crispEdges"/><rect fill="#242f38" x="134.2" y="806.7" width="158.6" height="24.65" shape-rendering="crispEdges"/><rect fill="#242f38" x="292.8" y="806.7" width="12.2" height="24.65" shape-rendering="crispEdges"/><rect fill="#242f38" x="305" y="806.7" width="12.2" height="24.65" shape-rendering="crispEdges"/><rect fill="#242f38" x="317.2" y="806.7" width="48.8" height="24.65" shape-rendering="crispEdges"/><rect fill="#242f38" x="366" y="806.7" width="12.2" height="24.65" shape-rendering="crispEdges"/><rect fill="#242f38" x="378.2" y="806.7" width="12.2" height="24.65" shape-rendering="crispEdges"/><rect fill="#242f38" x="390.4" y="806.7" width="48.8" height="24.65" shape-rendering="crispEdges"/><rect fill="#242f38" x="439.2" y="806.7" width="12.2" height="24.65" shape-rendering="crispEdges"/><rect fill="#242f38" x="451.4" y="806.7" width="12.2" height="24.65" shape-rendering="crispEdges"/><rect fill="#242f38" x="463.6" y="806.7" width="61" height="24.65" shape-rendering="crispEdges"/><rect fill="#242f38" x="524.6" y="806.7" width="12.2" height="24.65" shape-rendering="crispEdges"/><rect fill="#242f38" x="536.8" y="806.7" width="12.2" height="24.65" shape-rendering="crispEdges"/><rect fill="#242f38" x="549" y="806.7" width="61" height="24.65" shape-rendering="crispEdges"/><rect fill="#242f38" x="610" y="806.7" width="951.6" height="24.65" shape-rendering="crispEdges"/>
    <g class="terminal-805846022-matrix">
    <text class="terminal-805846022-r2" x="12.2" y="20" textLength="12.2" clip-path="url(#terminal-805846022-line-0)">⭘</text><text class="terminal-805846022-r2" x="524.6" y="20" textLength="85.4" clip-path="url(#terminal-805846022-line-0)">vivibox</text><text class="terminal-805846022-r3" x="610" y="20" textLength="36.6" clip-path="url(#terminal-805846022-line-0)">&#160;—&#160;</text><text class="terminal-805846022-r3" x="646.6" y="20" textLength="353.8" clip-path="url(#terminal-805846022-line-0)">3&#160;waiting&#160;for&#160;you&#160;·&#160;3&#160;working</text><text class="terminal-805846022-r4" x="1451.8" y="20" textLength="97.6" clip-path="url(#terminal-805846022-line-0)">01:52:51</text><text class="terminal-805846022-r1" x="1561.6" y="20" textLength="12.2" clip-path="url(#terminal-805846022-line-0)">
</text><text class="terminal-805846022-r5" x="0" y="44.4" textLength="158.6" clip-path="url(#terminal-805846022-line-1)">&#160;TASK&#160;&#160;&#160;&#160;&#160;&#160;&#160;&#160;</text><text class="terminal-805846022-r5" x="158.6" y="44.4" textLength="366" clip-path="url(#terminal-805846022-line-1)">&#160;STATUS&#160;&#160;&#160;&#160;&#160;&#160;&#160;&#160;&#160;&#160;&#160;&#160;&#160;&#160;&#160;&#160;&#160;&#160;&#160;&#160;&#160;&#160;&#160;</text><text class="terminal-805846022-r5" x="524.6" y="44.4" textLength="122" clip-path="url(#terminal-805846022-line-1)">&#160;CRITERIA&#160;</text><text class="terminal-805846022-r5" x="646.6" y="44.4" textLength="134.2" clip-path="url(#terminal-805846022-line-1)">&#160;UPDATED&#160;&#160;&#160;</text><text class="terminal-805846022-r5" x="780.8" y="44.4" textLength="585.6" clip-path="url(#terminal-805846022-line-1)">&#160;GOAL&#160;&#160;&#160;&#160;&#160;&#160;&#160;&#160;&#160;&#160;&#160;&#160;&#160;&#160;&#160;&#160;&#160;&#160;&#160;&#160;&#160;&#160;&#160;&#160;&#160;&#160;&#160;&#160;&#160;&#160;&#160;&#160;&#160;&#160;&#160;&#160;&#160;&#160;&#160;&#160;&#160;&#160;&#160;</text><text class="terminal-805846022-r1" x="1561.6" y="44.4" textLength="12.2" clip-path="url(#terminal-805846022-line-1)">
</text><text class="terminal-805846022-r6" x="0" y="68.8" textLength="158.6" clip-path="url(#terminal-805846022-line-2)">&#160;▾&#160;fantasy&#160;&#160;&#160;</text><text class="terminal-805846022-r6" x="780.8" y="68.8" textLength="585.6" clip-path="url(#terminal-805846022-line-2)">&#160;1&#160;waiting&#160;for&#160;you&#160;·&#160;2&#160;working&#160;·…&#160;&#160;&#160;&#160;&#160;&#160;&#160;&#160;&#160;&#160;&#160;&#160;&#160;&#160;&#160;</text><text class="terminal-805846022-r1" x="1561.6" y="68.8" textLength="12.2" clip-path="url(#terminal-805846022-line-2)">
</text><text class="terminal-805846022-r2" x="0" y="93.2" textLength="158.6" clip-path="url(#terminal-805846022-line-3)">&#160;&#160;&#160;fantasy-1&#160;</text><text class="terminal-805846022-r7" x="170.8" y="93.2" textLength="146.4" clip-path="url(#terminal-805846022-line-3)">&#160;&#160;agent&#160;asks</text><text class="terminal-805846022-r2" x="524.6" y="93.2" textLength="122" clip-path="url(#terminal-805846022-line-3)">&#160;1/2&#160;&#160;&#160;&#160;&#160;&#160;</text><text class="terminal-805846022-r2" x="646.6" y="93.2" textLength="134.2" clip-path="url(#terminal-805846022-line-3)">&#160;6&#160;min&#160;ago&#160;</text><text class="terminal-805846022-r2" x="780.8" y="93.2" textLength="585.6" clip-path="url(#terminal-805846022-line-3)">&#160;Cache&#160;the&#160;fixtures&#160;feed&#160;&#160;&#160;&#160;&#160;&#160;&#160;&#160;&#160;&#160;&#160;&#160;&#160;&#160;&#160;&#160;&#160;&#160;&#160;&#160;&#160;&#160;&#160;&#160;</text><text class="terminal-805846022-r1" x="1561.6" y="93.2" textLength="12.2" clip-path="url(#terminal-805846022-line-3)">
</text><text class="terminal-805846022-r2" x="0" y="117.6" textLength="158.6" clip-path="url(#terminal-805846022-line-4)">&#160;&#160;&#160;fantasy-2&#160;</text><text class="terminal-805846022-r8" x="170.8" y="117.6" textLength="134.2" clip-path="url(#terminal-805846022-line-4)">⠦&#160;verifying</text><text class="terminal-805846022-r2" x="524.6" y="117.6" textLength="122" clip-path="url(#terminal-805846022-line-4)">&#160;2/2&#160;&#160;&#160;&#160;&#160;&#160;</text><text class="terminal-805846022-r2" x="646.6" y="117.6" textLength="134.2" clip-path="url(#terminal-805846022-line-4)">&#160;1&#160;min&#160;ago&#160;</text><text class="terminal-805846022-r2" x="780.8" y="117.6" textLength="585.6" clip-path="url(#terminal-805846022-line-4)">&#160;Show&#160;the&#160;dream&#160;team&#160;on&#160;one&#160;page&#160;&#160;&#160;&#160;&#160;&#160;&#160;&#160;&#160;&#160;&#160;&#160;&#160;&#160;&#160;&#160;</text><text class="terminal-805846022-r1" x="1561.6" y="117.6" textLength="12.2" clip-path="url(#terminal-805846022-line-4)">
</text><text class="terminal-805846022-r2" x="0" y="142" textLength="158.6" clip-path="url(#terminal-805846022-line-5)">&#160;&#160;&#160;fantasy-3&#160;</text><text class="terminal-805846022-r8" x="170.8" y="142" textLength="122" clip-path="url(#terminal-805846022-line-5)">⠦&#160;planning</text><text class="terminal-805846022-r2" x="524.6" y="142" textLength="122" clip-path="url(#terminal-805846022-line-5)">&#160;0/1&#160;&#160;&#160;&#160;&#160;&#160;</text><text class="terminal-805846022-r2" x="646.6" y="142" textLength="134.2" clip-path="url(#terminal-805846022-line-5)">&#160;1&#160;min&#160;ago&#160;</text><text class="terminal-805846022-r2" x="780.8" y="142" textLength="585.6" clip-path="url(#terminal-805846022-line-5)">&#160;Export&#160;a&#160;gameweek&#160;to&#160;CSV&#160;&#160;&#160;&#160;&#160;&#160;&#160;&#160;&#160;&#160;&#160;&#160;&#160;&#160;&#160;&#160;&#160;&#160;&#160;&#160;&#160;&#160;&#160;</text><text class="terminal-805846022-r1" x="1561.6" y="142" textLength="12.2" clip-path="url(#terminal-805846022-line-5)">
</text><text class="terminal-805846022-r2" x="0" y="166.4" textLength="158.6" clip-path="url(#terminal-805846022-line-6)">&#160;&#160;&#160;fantasy-0&#160;</text><text class="terminal-805846022-r9" x="170.8" y="166.4" textLength="73.2" clip-path="url(#terminal-805846022-line-6)">&#160;&#160;done</text><text class="terminal-805846022-r2" x="524.6" y="166.4" textLength="122" clip-path="url(#terminal-805846022-line-6)">&#160;-&#160;&#160;&#160;&#160;&#160;&#160;&#160;&#160;</text><text class="terminal-805846022-r2" x="646.6" y="166.4" textLength="134.2" clip-path="url(#terminal-805846022-line-6)">&#160;3&#160;h&#160;ago&#160;&#160;&#160;</text><text class="terminal-805846022-r2" x="780.8" y="166.4" textLength="585.6" clip-path="url(#terminal-805846022-line-6)">&#160;Throttle&#160;failed&#160;logins&#160;&#160;&#160;&#160;&#160;&#160;&#160;&#160;&#160;&#160;&#160;&#160;&#160;&#160;&#160;&#160;&#160;&#160;&#160;&#160;&#160;&#160;&#160;&#160;&#160;</text><text class="terminal-805846022-r1" x="1561.6" y="166.4" textLength="12.2" clip-path="url(#terminal-805846022-line-6)">
</text><text class="terminal-805846022-r5" x="12.2" y="190.8" textLength="73.2" clip-path="url(#terminal-805846022-line-7)">▾&#160;shop</text><text class="terminal-805846022-r7" x="793" y="190.8" textLength="207.4" clip-path="url(#terminal-805846022-line-7)">2&#160;waiting&#160;for&#160;you</text><text class="terminal-805846022-r2" x="1000.4" y="190.8" textLength="36.6" clip-path="url(#terminal-805846022-line-7)">&#160;·&#160;</text><text class="terminal-805846022-r8" x="1037" y="190.8" textLength="109.8" clip-path="url(#terminal-805846022-line-7)">1&#160;working</text><text class="terminal-805846022-r1" x="1561.6" y="190.8" textLength="12.2" clip-path="url(#terminal-805846022-line-7)">
</text><text class="terminal-805846022-r2" x="0" y="215.2" textLength="158.6" clip-path="url(#terminal-805846022-line-8)">&#160;&#160;&#160;shop-2&#160;&#160;&#160;&#160;</text><text class="terminal-805846022-r7" x="170.8" y="215.2" textLength="207.4" clip-path="url(#terminal-805846022-line-8)">&#160;&#160;review&#160;the&#160;work</text><text class="terminal-805846022-r2" x="524.6" y="215.2" textLength="122" clip-path="url(#terminal-805846022-line-8)">&#160;3/3&#160;&#160;&#160;&#160;&#160;&#160;</text><text class="terminal-805846022-r2" x="646.6" y="215.2" textLength="134.2" clip-path="url(#terminal-805846022-line-8)">&#160;4&#160;min&#160;ago&#160;</text><text class="terminal-805846022-r2" x="780.8" y="215.2" textLength="585.6" clip-path="url(#terminal-805846022-line-8)">&#160;Add&#160;a&#160;/health&#160;endpoint&#160;with&#160;the&#160;database&#160;state&#160;</text><text class="terminal-805846022-r1" x="1561.6" y="215.2" textLength="12.2" clip-path="url(#terminal-805846022-line-8)">
</text><text class="terminal-805846022-r2" x="0" y="239.6" textLength="158.6" clip-path="url(#terminal-805846022-line-9)">&#160;&#160;&#160;shop-1&#160;&#160;&#160;&#160;</text><text class="terminal-805846022-r7" x="170.8" y="239.6" textLength="207.4" clip-path="url(#terminal-805846022-line-9)">&#160;&#160;review&#160;the&#160;plan</text><text class="terminal-805846022-r2" x="524.6" y="239.6" textLength="122" clip-path="url(#terminal-805846022-line-9)">&#160;0/2&#160;&#160;&#160;&#160;&#160;&#160;</text><text class="terminal-805846022-r2" x="646.6" y="239.6" textLength="134.2" clip-path="url(#terminal-805846022-line-9)">&#160;2&#160;min&#160;ago&#160;</text><text class="terminal-805846022-r2" x="780.8" y="239.6" textLength="585.6" clip-path="url(#terminal-805846022-line-9)">&#160;Reject&#160;expired&#160;cards&#160;at&#160;checkout&#160;&#160;&#160;&#160;&#160;&#160;&#160;&#160;&#160;&#160;&#160;&#160;&#160;&#160;&#160;</text><text class="terminal-805846022-r1" x="1561.6" y="239.6" textLength="12.2" clip-path="url(#terminal-805846022-line-9)">
</text><text class="terminal-805846022-r2" x="0" y="264" textLength="158.6" clip-path="url(#terminal-805846022-line-10)">&#160;&#160;&#160;shop-3&#160;&#160;&#160;&#160;</text><text class="terminal-805846022-r8" x="170.8" y="264" textLength="341.6" clip-path="url(#terminal-805846022-line-10)">⠦&#160;implementing&#160;(attempt&#160;2/3)</text><text class="terminal-805846022-r2" x="524.6" y="264" textLength="122" clip-path="url(#terminal-805846022-line-10)">&#160;1/2&#160;&#160;&#160;&#160;&#160;&#160;</text><text class="terminal-805846022-r2" x="646.6" y="264" textLength="134.2" clip-path="url(#terminal-805846022-line-10)">&#160;3&#160;min&#160;ago&#160;</text><text class="terminal-805846022-r2" x="780.8" y="264" textLength="585.6" clip-path="url(#terminal-805846022-line-10)">&#160;Round&#160;VAT&#160;per&#160;line,&#160;not&#160;per&#160;invoice&#160;&#160;&#160;&#160;&#160;&#160;&#160;&#160;&#160;&#160;&#160;&#160;</text><text class="terminal-805846022-r1" x="1561.6" y="264" textLength="12.2" clip-path="url(#terminal-805846022-line-10)">
</text><text class="terminal-805846022-r1" x="1561.6" y="288.4" textLength="12.2" clip-path="url(#terminal-805846022-line-11)">
</text><text class="terminal-805846022-r1" x="1561.6" y="312.8" textLength="12.2" clip-path="url(#terminal-805846022-line-12)">
</text><text class="terminal-805846022-r1" x="1561.6" y="337.2" textLength="12.2" clip-path="url(#terminal-805846022-line-13)">
</text><text class="terminal-805846022-r10" x="0" y="361.6" textLength="1561.6" clip-path="url(#terminal-805846022-line-14)">────────────────────────────────────────────────────────────────────────────────────────────────────────────────────────────────</text><text class="terminal-805846022-r1" x="1561.6" y="361.6" textLength="12.2" clip-path="url(#terminal-805846022-line-14)">
</text><text class="terminal-805846022-r1" x="1561.6" y="386" textLength="12.2" clip-path="url(#terminal-805846022-line-15)">
</text><text class="terminal-805846022-r11" x="36.6" y="410.4" textLength="85.4" clip-path="url(#terminal-805846022-line-16)">fantasy</text><text class="terminal-805846022-r1" x="1561.6" y="410.4" textLength="12.2" clip-path="url(#terminal-805846022-line-16)">
</text><text class="terminal-805846022-r1" x="1561.6" y="434.8" textLength="12.2" clip-path="url(#terminal-805846022-line-17)">
</text><text class="terminal-805846022-r5" x="36.6" y="459.2" textLength="61" clip-path="url(#terminal-805846022-line-18)">Next:</text><text class="terminal-805846022-r12" x="109.8" y="459.2" textLength="12.2" clip-path="url(#terminal-805846022-line-18)">n</text><text class="terminal-805846022-r2" x="122" y="459.2" textLength="146.4" clip-path="url(#terminal-805846022-line-18)">&#160;new&#160;task&#160;·&#160;</text><text class="terminal-805846022-r12" x="268.4" y="459.2" textLength="12.2" clip-path="url(#terminal-805846022-line-18)">e</text><text class="terminal-805846022-r2" x="280.6" y="459.2" textLength="329.4" clip-path="url(#terminal-805846022-line-18)">&#160;edit&#160;the&#160;project&#x27;s&#160;file&#160;·&#160;</text><text class="terminal-805846022-r12" x="610" y="459.2" textLength="12.2" clip-path="url(#terminal-805846022-line-18)">o</text><text class="terminal-805846022-r2" x="622.2" y="459.2" textLength="390.4" clip-path="url(#terminal-805846022-line-18)">&#160;open&#160;the&#160;repository&#160;in&#160;your&#160;IDE</text><text class="terminal-805846022-r1" x="1561.6" y="459.2" textLength="12.2" clip-path="url(#terminal-805846022-line-18)">
</text><text class="terminal-805846022-r1" x="1561.6" y="483.6" textLength="12.2" clip-path="url(#terminal-805846022-line-19)">
</text><text class="terminal-805846022-r12" x="36.6" y="508" textLength="695.4" clip-path="url(#terminal-805846022-line-20)">/tmp/vivibox-readme-_eobvm0y/config/projects/fantasy.toml</text><text class="terminal-805846022-r1" x="1561.6" y="508" textLength="12.2" clip-path="url(#terminal-805846022-line-20)">
</text><text class="terminal-805846022-r1" x="1561.6" y="532.4" textLength="12.2" clip-path="url(#terminal-805846022-line-21)">
</text><text class="terminal-805846022-r1" x="1561.6" y="556.8" textLength="12.2" clip-path="url(#terminal-805846022-line-22)">
</text><text class="terminal-805846022-r13" x="61" y="581.2" textLength="48.8" clip-path="url(#terminal-805846022-line-23)">repo</text><text class="terminal-805846022-r15" x="122" y="581.2" textLength="12.2" clip-path="url(#terminal-805846022-line-23)">=</text><text class="terminal-805846022-r16" x="146.4" y="581.2" textLength="12.2" clip-path="url(#terminal-805846022-line-23)">&quot;</text><text class="terminal-805846022-r16" x="158.6" y="581.2" textLength="439.2" clip-path="url(#terminal-805846022-line-23)">/tmp/vivibox-readme-_eobvm0y/fantasy</text><text class="terminal-805846022-r16" x="597.8" y="581.2" textLength="12.2" clip-path="url(#terminal-805846022-line-23)">&quot;</text><text class="terminal-805846022-r1" x="1561.6" y="581.2" textLength="12.2" clip-path="url(#terminal-805846022-line-23)">
</text><text class="terminal-805846022-r13" x="61" y="605.6" textLength="73.2" clip-path="url(#terminal-805846022-line-24)">verify</text><text class="terminal-805846022-r15" x="146.4" y="605.6" textLength="12.2" clip-path="url(#terminal-805846022-line-24)">=</text><text class="terminal-805846022-r14" x="158.6" y="605.6" textLength="24.4" clip-path="url(#terminal-805846022-line-24)">&#160;[</text><text class="terminal-805846022-r16" x="183" y="605.6" textLength="12.2" clip-path="url(#terminal-805846022-line-24)">&quot;</text><text class="terminal-805846022-r16" x="195.2" y="605.6" textLength="48.8" clip-path="url(#terminal-805846022-line-24)">true</text><text class="terminal-805846022-r16" x="244" y="605.6" textLength="12.2" clip-path="url(#terminal-805846022-line-24)">&quot;</text><text class="terminal-805846022-r14" x="256.2" y="605.6" textLength="12.2" clip-path="url(#terminal-805846022-line-24)">]</text><text class="terminal-805846022-r1" x="1561.6" y="605.6" textLength="12.2" clip-path="url(#terminal-805846022-line-24)">
</text><text class="terminal-805846022-r1" x="1561.6" y="630" textLength="12.2" clip-path="url(#terminal-805846022-line-25)">
</text><text class="terminal-805846022-r1" x="1561.6" y="654.4" textLength="12.2" clip-path="url(#terminal-805846022-line-26)">
</text><text class="terminal-805846022-r1" x="1561.6" y="678.8" textLength="12.2" clip-path="url(#terminal-805846022-line-27)">
</text><text class="terminal-805846022-r1" x="1561.6" y="703.2" textLength="12.2" clip-path="url(#terminal-805846022-line-28)">
</text><text class="terminal-805846022-r1" x="1561.6" y="727.6" textLength="12.2" clip-path="url(#terminal-805846022-line-29)">
</text><text class="terminal-805846022-r1" x="1561.6" y="752" textLength="12.2" clip-path="url(#terminal-805846022-line-30)">
</text><text class="terminal-805846022-r1" x="1561.6" y="776.4" textLength="12.2" clip-path="url(#terminal-805846022-line-31)">
</text><text class="terminal-805846022-r1" x="1561.6" y="800.8" textLength="12.2" clip-path="url(#terminal-805846022-line-32)">
</text><text class="terminal-805846022-r17" x="0" y="825.2" textLength="12.2" clip-path="url(#terminal-805846022-line-33)">d</text><text class="terminal-805846022-r2" x="12.2" y="825.2" textLength="97.6" clip-path="url(#terminal-805846022-line-33)">&#160;Details</text><text class="terminal-805846022-r17" x="122" y="825.2" textLength="12.2" clip-path="url(#terminal-805846022-line-33)">e</text><text class="terminal-805846022-r2" x="134.2" y="825.2" textLength="158.6" clip-path="url(#terminal-805846022-line-33)">&#160;Edit&#160;project</text><text class="terminal-805846022-r17" x="305" y="825.2" textLength="12.2" clip-path="url(#terminal-805846022-line-33)">o</text><text class="terminal-805846022-r2" x="317.2" y="825.2" textLength="48.8" clip-path="url(#terminal-805846022-line-33)">&#160;IDE</text><text class="terminal-805846022-r17" x="378.2" y="825.2" textLength="12.2" clip-path="url(#terminal-805846022-line-33)">n</text><text class="terminal-805846022-r2" x="390.4" y="825.2" textLength="48.8" clip-path="url(#terminal-805846022-line-33)">&#160;New</text><text class="terminal-805846022-r17" x="451.4" y="825.2" textLength="12.2" clip-path="url(#terminal-805846022-line-33)">?</text><text class="terminal-805846022-r2" x="463.6" y="825.2" textLength="61" clip-path="url(#terminal-805846022-line-33)">&#160;Help</text><text class="terminal-805846022-r17" x="536.8" y="825.2" textLength="12.2" clip-path="url(#terminal-805846022-line-33)">q</text><text class="terminal-805846022-r2" x="549" y="825.2" textLength="61" clip-path="url(#terminal-805846022-line-33)">&#160;Quit</text>
    </g>
    </g>
</svg>
